<?xml version="1.0" encoding="UTF-8" standalone="no"?>
<!-- Uploaded to: SVG Repo, www.svgrepo.com, Generator: SVG Repo Mixer Tools -->

<svg
   fill="#000000"
   version="1.1"
   id="Capa_1"
   width="800px"
   height="800px"
   viewBox="0 0 236.885 236.885"
   xml:space="preserve"
   sodipodi:docname="hibernate.svg"
   inkscape:version="1.4 (e7c3feb100, 2024-10-09)"
   xmlns:inkscape="http://www.inkscape.org/namespaces/inkscape"
   xmlns:sodipodi="http://sodipodi.sourceforge.net/DTD/sodipodi-0.dtd"
   xmlns="http://www.w3.org/2000/svg"
   xmlns:svg="http://www.w3.org/2000/svg"><defs
   id="defs1" /><sodipodi:namedview
   id="namedview1"
   pagecolor="#ffffff"
   bordercolor="#000000"
   borderopacity="0.25"
   inkscape:showpageshadow="2"
   inkscape:pageopacity="0.0"
   inkscape:pagecheckerboard="0"
   inkscape:deskcolor="#d1d1d1"
   inkscape:zoom="0.95269885"
   inkscape:cx="469.19338"
   inkscape:cy="458.17206"
   inkscape:window-width="1916"
   inkscape:window-height="1076"
   inkscape:window-x="0"
   inkscape:window-y="0"
   inkscape:window-maximized="0"
   inkscape:current-layer="g1" />
<g
   id="g1">
	<path
   d="M200.29,32.48c-0.076-0.93-0.731-1.707-1.634-1.938l-51.026-13.027l-3.683-10.702C142.547,2.737,138.713,0,134.405,0   H61.598c-4.308,0-8.143,2.736-9.539,6.807l-19.892,57.81c-0.509,1.472-0.67,3.065-0.466,4.609l19.895,150.709   c0.657,5,4.957,8.771,10.002,8.771h52.629l31.763,8.109c1.061,0.271,2.157-0.287,2.563-1.304l56.56-141.104   c0.128-0.313,0.179-0.652,0.148-0.99L200.29,32.48z M92.172,64.546c-0.187,0.282-0.305,0.605-0.345,0.939L74.243,212.893H66.62   L47.558,68.496l18.126-52.679h58.51L92.172,64.546z M167.406,106.95l-2.882,11.105c-0.268,1.025-1.319,1.645-2.346,1.377   l-13.93-3.615l-9.269,35.714c-0.267,1.027-1.319,1.646-2.344,1.377l-11.104-2.881c-1.027-0.264-1.645-1.315-1.379-2.34l9.27-35.718   l-13.932-3.614c-1.025-0.267-1.644-1.316-1.376-2.344l2.88-11.104c0.268-1.025,1.318-1.643,2.345-1.378l13.932,3.615l3.059-11.792   c0.266-1.023,1.316-1.643,2.342-1.376l11.104,2.881c1.025,0.267,1.646,1.317,1.378,2.342l-3.061,11.792l13.933,3.617   C167.051,104.874,167.671,105.925,167.406,106.95z"
   id="path1"
   style="fill:#ffffff" />
</g>
</svg>
