<?xml version="1.0" encoding="UTF-8" standalone="no"?>
<!-- Uploaded to: SVG Repo, www.svgrepo.com, Generator: SVG Repo Mixer Tools -->

<svg
   fill="#000000"
   width="800px"
   height="800px"
   viewBox="0 0 32 32"
   version="1.1"
   id="svg1"
   sodipodi:docname="lock.svg"
   inkscape:version="1.4 (e7c3feb100, 2024-10-09)"
   xmlns:inkscape="http://www.inkscape.org/namespaces/inkscape"
   xmlns:sodipodi="http://sodipodi.sourceforge.net/DTD/sodipodi-0.dtd"
   xmlns="http://www.w3.org/2000/svg"
   xmlns:svg="http://www.w3.org/2000/svg">
  <defs
     id="defs1" />
  <sodipodi:namedview
     id="namedview1"
     pagecolor="#ffffff"
     bordercolor="#000000"
     borderopacity="0.25"
     inkscape:showpageshadow="2"
     inkscape:pageopacity="0.0"
     inkscape:pagecheckerboard="0"
     inkscape:deskcolor="#d1d1d1"
     inkscape:zoom="0.9075"
     inkscape:cx="400"
     inkscape:cy="399.44904"
     inkscape:window-width="1210"
     inkscape:window-height="1076"
     inkscape:window-x="0"
     inkscape:window-y="0"
     inkscape:window-maximized="0"
     inkscape:current-layer="svg1" />
  <title
     id="title1">metal-gate</title>
  <path
     d="M26.332 27.364v-25.951h-20.881v25.951h-0.476l1.905 3.622 1.905-3.622h-1.075v-3.962h2.442v3.962h-0.445l1.905 3.622 1.905-3.622h-1.106v-3.962h2.296v3.962h-0.356l1.905 3.622 1.905-3.622h-1.159v-3.962h2.478v3.962h-0.435l1.905 3.622 1.905-3.622h-1.116v-3.962h2.332v3.962h-0.382l1.905 3.622 1.905-3.622h-1.17zM12.411 10.178h2.296v4.344h-2.296v-4.344zM10.151 14.522h-2.442v-4.344h2.442v4.344zM17.003 10.178h2.478v4.344h-2.478v-4.344zM21.74 10.178h2.332v4.344h-2.332v-4.344zM24.072 3.651v4.259h-2.332v-4.259h2.332zM19.481 3.651v4.259h-2.478v-4.259h2.478zM14.707 3.651v4.259h-2.296v-4.259h2.296zM10.151 3.651v4.259h-2.442v-4.259h2.442zM7.71 21.134v-4.345h2.442v4.345h-2.442zM12.411 21.134v-4.345h2.296v4.345h-2.296zM17.003 21.134v-4.345h2.478v4.345h-2.478zM21.74 21.134v-4.345h2.332v4.345h-2.332z"
     id="path1"
     style="fill:#ffffff" />
</svg>
