<?xml version="1.0" encoding="UTF-8" standalone="no"?>
<!-- Uploaded to: SVG Repo, www.svgrepo.com, Generator: SVG Repo Mixer Tools -->

<svg
   fill="#000000"
   height="800.00079"
   width="973.87488"
   version="1.1"
   id="Layer_1"
   viewBox="0 0 623.27992 512.00051"
   xml:space="preserve"
   sodipodi:docname="logout.svg"
   inkscape:version="1.4 (e7c3feb100, 2024-10-09)"
   xmlns:inkscape="http://www.inkscape.org/namespaces/inkscape"
   xmlns:sodipodi="http://sodipodi.sourceforge.net/DTD/sodipodi-0.dtd"
   xmlns="http://www.w3.org/2000/svg"
   xmlns:svg="http://www.w3.org/2000/svg"><defs
   id="defs2"><marker
     style="overflow:visible"
     id="Triangle"
     refX="0"
     refY="0"
     orient="auto-start-reverse"
     inkscape:stockid="Triangle arrow"
     markerWidth="0.5"
     markerHeight="0.5"
     viewBox="0 0 1 1"
     inkscape:isstock="true"
     inkscape:collect="always"
     preserveAspectRatio="xMidYMid"><path
       transform="scale(0.5)"
       style="fill:context-stroke;fill-rule:evenodd;stroke:context-stroke;stroke-width:1pt"
       d="M 5.77,0 -2.88,5 V -5 Z"
       id="path135" /></marker></defs><sodipodi:namedview
   id="namedview2"
   pagecolor="#ffffff"
   bordercolor="#000000"
   borderopacity="0.25"
   inkscape:showpageshadow="2"
   inkscape:pageopacity="0.0"
   inkscape:pagecheckerboard="true"
   inkscape:deskcolor="#d1d1d1"
   inkscape:zoom="1.3180909"
   inkscape:cx="546.24456"
   inkscape:cy="478.34332"
   inkscape:window-width="1916"
   inkscape:window-height="1076"
   inkscape:window-x="0"
   inkscape:window-y="0"
   inkscape:window-maximized="0"
   inkscape:current-layer="Layer_1" />
<g
   id="g2"
   transform="translate(3.2408428e-4,5e-4)">
	<g
   id="g1">
		<path
   d="M 510.216,265.229 454.585,153.925 c -6.152,-12.306 -23.713,-12.306 -29.865,0 l -55.631,111.304 c -5.551,11.102 2.522,24.162 14.934,24.162 h 5.543 v 33.391 H 333.914 V 222.609 h 17.507 c 12.412,0 20.483,-13.062 14.934,-24.162 L 270.934,9.229 c -6.153,-12.306 -23.713,-12.306 -29.866,0 l -95.42,189.217 c -5.552,11.102 2.521,24.162 14.933,24.162 h 17.507 v 100.174 h -55.652 v -33.391 h 5.543 c 12.412,0 20.483,-13.062 14.934,-24.162 L 87.28,153.925 c -6.152,-12.306 -23.713,-12.306 -29.865,0 L 1.784,265.229 c -5.551,11.102 2.522,24.162 14.934,24.162 h 5.543 v 205.913 c 0,9.22 7.475,16.696 16.696,16.696 h 61.217 22.261 55.652 v -54.674 c 0,-42.961 34.362,-78.57 77.322,-78.889 43.301,-0.322 78.504,34.684 78.504,77.911 V 512 h 55.652 83.478 c 9.22,0 16.696,-7.475 16.696,-16.696 V 289.391 h 5.543 c 12.413,0 20.485,-13.06 14.934,-24.162 z"
   id="path1"
   style="stroke:#ffffff;fill:#ffffff" />
	</g>
</g>
<path
   style="fill:#ffffff;stroke:#ffffff;stroke-width:44.8;stroke-dasharray:none;marker-end:url(#Triangle)"
   d="m 256.18176,423.84623 h 287.5541"
   id="path2"
   sodipodi:nodetypes="cc" /></svg>
