<?xml version="1.0" encoding="UTF-8" standalone="no"?>
<!-- Uploaded to: SVG Repo, www.svgrepo.com, Generator: SVG Repo Mixer Tools -->

<svg
   fill="#000000"
   height="800px"
   width="800px"
   version="1.1"
   id="Layer_1"
   viewBox="0 0 511.999 511.999"
   xml:space="preserve"
   sodipodi:docname="reboot.svg"
   inkscape:version="1.4 (e7c3feb100, 2024-10-09)"
   xmlns:inkscape="http://www.inkscape.org/namespaces/inkscape"
   xmlns:sodipodi="http://sodipodi.sourceforge.net/DTD/sodipodi-0.dtd"
   xmlns="http://www.w3.org/2000/svg"
   xmlns:svg="http://www.w3.org/2000/svg"><defs
   id="defs4"><marker
     style="overflow:visible"
     id="Triangle"
     refX="0"
     refY="0"
     orient="auto-start-reverse"
     inkscape:stockid="Triangle arrow"
     markerWidth="1"
     markerHeight="1"
     viewBox="0 0 1 1"
     inkscape:isstock="true"
     inkscape:collect="always"
     preserveAspectRatio="xMidYMid"><path
       transform="scale(0.5)"
       style="fill:context-stroke;fill-rule:evenodd;stroke:context-stroke;stroke-width:1pt"
       d="M 5.77,0 -2.88,5 V -5 Z"
       id="path135" /></marker></defs><sodipodi:namedview
   id="namedview4"
   pagecolor="#ffffff"
   bordercolor="#000000"
   borderopacity="0.25"
   inkscape:showpageshadow="2"
   inkscape:pageopacity="0.0"
   inkscape:pagecheckerboard="true"
   inkscape:deskcolor="#d1d1d1"
   showguides="true"
   inkscape:zoom="1.0687707"
   inkscape:cx="335.89991"
   inkscape:cy="157.65776"
   inkscape:window-width="1916"
   inkscape:window-height="1076"
   inkscape:window-x="0"
   inkscape:window-y="0"
   inkscape:window-maximized="0"
   inkscape:current-layer="Layer_1" />

<path
   id="path9"
   style="baseline-shift:baseline;display:inline;overflow:visible;vector-effect:none;enable-background:accumulate;stop-color:#000000;stop-opacity:1;fill:#ffffff;stroke:none"
   d="M 239.33703 2.5324951 C 175.40803 2.5324951 115.30486 27.426608 70.099863 72.633608 C 24.894863 117.83861 0 177.94178 0 241.87078 C 0 349.01578 71.46441 443.24558 174.20341 472.22658 C 175.5591 483.06755 178.36424 493.19401 182.46964 502.44027 C 182.47017 502.44146 182.47036 502.44282 182.47089 502.44402 C 182.59167 502.81682 182.71152 503.20192 182.83214 503.57277 L 182.93589 503.53902 C 183.12588 503.95274 183.27661 504.39286 183.47214 504.80276 C 184.46614 506.88776 186.29413 508.45651 188.50713 509.12151 C 189.28013 509.35351 190.07363 509.46775 190.86463 509.46775 C 192.33763 509.46775 193.80137 509.07051 195.08837 508.29651 C 235.43037 484.02451 278.2574 476.3843 306.8594 488.3603 C 310.1294 489.7273 313.90938 488.8383 316.22438 486.1553 C 319.41138 482.4613 322.21612 479.57407 325.05312 477.06907 C 353.06812 452.31407 392.53017 446.7996 425.58917 463.0166 C 428.56817 464.4776 432.13365 463.99835 434.62165 461.80035 C 437.10865 459.60235 438.0234 456.12362 436.9404 452.98662 C 424.9134 418.18662 435.24685 379.70531 463.26285 354.94931 C 466.09785 352.44331 469.31133 350.01407 473.37033 347.30307 C 476.31833 345.33507 477.66632 341.69359 476.71032 338.28059 C 468.34832 308.42659 481.2015 266.8663 510.2565 229.8183 C 511.6795 228.0033 512.27075 225.66556 511.88275 223.38956 C 511.49575 221.11256 510.16501 219.10482 508.21901 217.86082 C 498.57101 211.69582 487.64857 207.1836 475.74157 204.3146 C 471.15957 175.2036 461.34138 147.51876 446.51038 121.94976 C 444.80713 119.01426 441.56323 117.53014 438.39664 117.92977 C 437.34111 118.06298 436.29365 118.40577 435.3154 118.97352 C 431.4014 121.24452 430.06916 126.25675 432.33916 130.16975 C 445.21616 152.37075 454.0361 176.28336 458.6291 201.38836 C 431.2561 198.50736 399.92528 203.22058 367.40428 215.57958 C 365.14928 216.43658 363.38654 218.24507 362.58554 220.52207 C 361.78654 222.79807 362.03004 225.31306 363.25304 227.39206 C 379.13204 254.37606 378.64954 289.69163 362.62054 319.92063 L 340.22559 294.57442 C 338.06459 292.12942 334.65485 291.20693 331.55185 292.21693 C 328.44785 293.22693 326.23761 295.99442 325.93061 299.24442 C 325.42561 304.58142 322.35514 319.98786 314.30314 327.10186 C 303.60714 336.55386 287.99044 334.0606 287.87444 334.0406 C 284.44244 333.4266 281.0002 335.05159 279.2932 338.09059 C 277.5862 341.12959 277.9877 344.91607 280.2957 347.52807 L 302.69191 372.87552 C 270.72091 385.05952 235.61159 381.19079 210.78459 362.11179 C 208.87059 360.64179 206.40635 360.0893 204.04835 360.6043 C 201.69135 361.1173 199.67886 362.64379 198.55086 364.77679 C 196.102 369.40604 193.9275 374.063 191.84463 378.72301 C 191.84272 378.72716 191.84028 378.73136 191.83838 378.73551 C 191.04672 380.5069 190.22625 382.2778 189.47088 384.04925 C 188.04209 387.33277 186.73886 390.52486 185.52589 393.65298 C 185.43219 393.9028 185.30979 394.15584 185.21714 394.40548 C 185.20844 394.42897 185.21378 394.45318 185.20589 394.47673 C 185.20562 394.47754 185.20619 394.47842 185.20589 394.47923 C 175.95774 418.59293 172.93972 438.181 173.22466 454.85536 C 80.440369 426.12465 16.382468 339.78471 16.382468 241.87078 C 16.382468 118.93378 116.40003 18.916213 239.33703 18.916213 C 277.68703 18.916213 315.50407 28.811657 348.69807 47.533657 C 352.63907 49.756657 357.6348 48.363413 359.8568 44.422413 C 362.0798 40.481413 360.68655 35.484685 356.74555 33.263685 C 321.10155 13.157685 280.50103 2.5324951 239.33703 2.5324951 z " />
<path
   style="fill:#ffffff;stroke:#ffffff;stroke-width:12.8;stroke-dasharray:none;marker-end:url(#Triangle)"
   d="m 339.02971,32.895686 c 9.78111,2.503743 8.91906,6.821367 18.60632,14.519876"
   id="path11"
   sodipodi:nodetypes="cc" /></svg>
