<?xml version="1.0" encoding="UTF-8" standalone="no"?>
<!-- Uploaded to: SVG Repo, www.svgrepo.com, Generator: SVG Repo Mixer Tools -->

<svg
   width="750.03864"
   height="575.01233"
   viewBox="0 0 60.003091 46.000986"
   aria-hidden="true"
   role="img"
   class="iconify iconify--emojione-monotone"
   preserveAspectRatio="xMidYMid"
   version="1.1"
   id="svg1"
   sodipodi:docname="suspend.svg"
   inkscape:version="1.4 (e7c3feb100, 2024-10-09)"
   xmlns:inkscape="http://www.inkscape.org/namespaces/inkscape"
   xmlns:sodipodi="http://sodipodi.sourceforge.net/DTD/sodipodi-0.dtd"
   xmlns="http://www.w3.org/2000/svg"
   xmlns:svg="http://www.w3.org/2000/svg">
  <defs
     id="defs1" />
  <sodipodi:namedview
     id="namedview1"
     pagecolor="#ffffff"
     bordercolor="#000000"
     borderopacity="0.25"
     inkscape:showpageshadow="2"
     inkscape:pageopacity="0.0"
     inkscape:pagecheckerboard="0"
     inkscape:deskcolor="#d1d1d1"
     inkscape:zoom="0.91838401"
     inkscape:cx="393.08176"
     inkscape:cy="208.51844"
     inkscape:window-width="1916"
     inkscape:window-height="1076"
     inkscape:window-x="0"
     inkscape:window-y="0"
     inkscape:window-maximized="0"
     inkscape:current-layer="svg1" />
  <path
     id="path1"
     d="m 35.301739,0.0042652 c -0.731,0.0325 -1.462032,0.2396875 -1.462031,0.2396875 0,0 -0.938875,2.6660312 -1.261875,7.4070312 -0.84,-1.918 -1.768063,-3.47 -2.574063,-3.47 -0.824,0 -1.776969,1.6259375 -2.632969,3.6059375 -0.314,-4.825 -1.272969,-7.541875 -1.272969,-7.541875 0,0 -2.924062,-0.8290937 -2.924062,0.5689063 0,1.455 1.292969,1.9909687 2.237969,1.6279687 0.771,4.852 -0.204907,10.6069996 -0.478906,12.0500006 0,0 -0.345076,1.011751 -0.73679,2.377942 0,0 -0.678715,-0.05307 -1.42821,-0.47388 -2.702002,-1.058 -4.293094,-4.535 -4.811094,-5.85 -0.013,-0.172 -0.032,-0.339031 -0.045,-0.512031 -0.158,-2.2150006 -1.838938,-1.7359381 -1.700938,0.184062 l 0.01094,0.117031 c -0.972002,0.650002 -1.842971,0.920938 -2.607971,0.920938 -1.756,0 -2.968031,-1.3479691 -3.6370315,-2.3729691 -0.078,-0.379 -0.164,-0.751031 -0.235,-1.137031 -0.402,-2.177 -2.0160005,-1.4780314 -1.67,0.407969 0.008,0.044 0.01903,0.08397 0.02703,0.127969 -0.986999,1.667 -2.0609365,2.2290621 -3.0509365,2.2290621 -1.334,0 -2.5030625,-0.9929691 -3.1190625,-1.6279691 -0.062,-0.175 -0.13,-0.342062 -0.19,-0.519062 -0.703,-2.0770005 -2.20693745,-1.105907 -1.59593745,0.691094 C 3.594832,19.230047 9.5238325,25.550921 12.092833,27.936922 c -0.002,0.842 0.659968,1.621093 1.562968,2.146093 0,0 -2.734031,-3.640062 6.667969,-2.774062 1.082347,0.106616 2.175079,-0.0059 3.212969,-0.330938 0.17,0.236 0.350968,0.456031 0.557968,0.637031 -0.235998,0.516002 -0.387968,1.049969 -0.387968,1.602969 0,1.649 0.555062,3.424907 1.474062,4.893906 -6.325,3.727001 -4.63,11.889063 -4.63,11.889063 5.113,-0.965 7.233,-5.403937 8.115,-8.905938 0.432,0.141 0.878969,0.220938 1.337969,0.220938 0.46,0 0.906031,-0.07994 1.337031,-0.220938 0.881,3.502001 3,7.940938 8.115,8.905938 0,0 1.692906,-8.162062 -4.631094,-11.889063 0.920002,-1.469 1.475001,-3.244906 1.475001,-4.893906 0,-0.554 -0.149907,-1.089062 -0.388907,-1.604062 0.207,-0.182 0.38703,-0.399938 0.557032,-0.635938 1.037022,0.325826 2.129186,0.438762 3.210937,0.332031 9.403,-0.864998 6.670938,2.773907 6.670937,2.773907 0.902,-0.525 1.563063,-1.304938 1.559063,-2.145938 2.572,-2.387 8.497937,-8.708031 11.950938,-18.8820311 0.611999,-1.798 -0.889969,-2.7690315 -1.592969,-0.692031 -0.06,0.176 -0.127969,0.341094 -0.187969,0.516093 -0.615,0.635 -1.785031,1.6309381 -3.122031,1.6309381 -0.989,0 -2.063,-0.5619381 -3.05,-2.2259371 0.009,-0.045 0.01997,-0.08609 0.02797,-0.131094 0.345999,-1.8860005 -1.272876,-2.583969 -1.671877,-0.407969 -0.071,0.385 -0.157062,0.756937 -0.234062,1.135937 -0.669,1.025002 -1.881969,2.3731251 -3.637969,2.3731251 -0.766,0 -1.636094,-0.270999 -2.606093,-0.92 0.003,-0.04 0.009,-0.07813 0.01203,-0.118124 0.135,-1.9200001 -1.544,-2.3979067 -1.7,-0.183907 -0.012,0.168 -0.02997,0.331906 -0.04297,0.498907 -0.512,1.303999 -2.104062,4.801123 -4.814063,5.863125 -0.54079,0.382284 -1.380132,0.474817 -1.380132,0.474817 -0.472924,-0.894928 -0.786742,-2.030911 -0.786742,-2.030911 0,0 -1.438063,-6.8039691 -0.549063,-12.3979691 0.945,0.363 2.24,-0.1729686 2.24,-1.6279688 0,-0.6989999 -0.731031,-0.8412499 -1.462031,-0.8087499 z"
     style="fill:#ffffff"
     sodipodi:nodetypes="cccsccsccccccccsccccsccccccccscccscccsccccccccsccccsccccccccssc" />
</svg>
